# xmcd
#
# Track frame offsets: 
#        150
#        17797
#        35877
#        54427
#        72837
#        92377
#        110605
#        128522
#        147260
#        166365
#        183832
#        202707
#        221095
#        240117
#        257962
#        275740
#        293025
#        311637
#
# Disc length: 4400 seconds
#
# Revision: 7
# Processed by: cddbd v1.5.2PL0 Copyright (c) Steve Scherf et al.
# Submitted via: ExactAudioCopy v1.0b1
#
DISCID=02112e12
DTITLE=Various Artist - SUPER EUROBEAT VOL.116
DYEAR=2001
DGENRE=Eurobeat
TTITLE0=ROBERT PATTON - ROCK IN JAPAN
TTITLE1=GO GO GIRLS - CYBER DANCE
TTITLE2=TOKYO FUTURE - LISTEN TO EUROBEAT
TTITLE3=NORMA SHEFFIELD - YOUR BODY CALL
TTITLE4=GISELLE - MY LOVE IS HAPPINESS
TTITLE5=MADISON - DANGEROUS
TTITLE6=MR. M - CRAZY
TTITLE7=POWERFUL T. - WILD ON THE STREET
TTITLE8=ZA-ZA - COME AND GO
TTITLE9=MIKE WEST - POP MUSIK
TTITLE10=ALLEN COX - FUNKY BABY
TTITLE11=KIM LOREN - HAPPY NEWS
TTITLE12=KAREN - LOOKIN' AT THE SUN
TTITLE13=TOBY ASH - FEELING OF THE NIGHT
TTITLE14=SUZY LAZY - DA-DU-RI-DAN
TTITLE15=NIK KEY - BURNING FEVER
TTITLE16=DAVE and KAREN - LIVING IN PEACE
TTITLE17=AYUMI HAMASAKI - AUDIENCE (Euro-Power Mix)
EXTD=YEAR: 2001
EXTT0=
EXTT1=
EXTT2=
EXTT3=
EXTT4=
EXTT5=
EXTT6=
EXTT7=
EXTT8=
EXTT9=
EXTT10=
EXTT11=
EXTT12=
EXTT13=
EXTT14=
EXTT15=
EXTT16=
EXTT17=
PLAYORDER=
